<svg width="29" height="28" viewBox="0 0 29 28" fill="none" xmlns="http://www.w3.org/2000/svg">
<g clip-path="url(#clip0_402_356)">
<path d="M8.1287 11.5097H7.2208C5.98184 11.4649 4.7469 11.6753 3.59261 12.1276C2.43832 12.58 1.38932 13.2648 0.510708 14.1395L0.260254 14.4317V23.0724H4.51798V18.1676L5.09194 17.5206L5.35283 17.218C6.71147 15.8222 8.40293 14.7951 10.268 14.2334C9.33422 13.5229 8.59776 12.5853 8.1287 11.5097Z" fill="#191617"/>
<path d="M28.3112 14.1082C27.4325 13.2335 26.3835 12.5487 25.2293 12.0963C24.075 11.644 22.84 11.4336 21.6011 11.4784C21.2211 11.4795 20.8414 11.5004 20.4636 11.541C19.9857 12.55 19.2694 13.4276 18.3765 14.0977C20.3676 14.6486 22.1712 15.7308 23.5943 17.2284L23.8552 17.5206L24.4187 18.1676V23.0828H28.5303V14.4004L28.3112 14.1082Z" fill="#191617"/>
<path d="M7.18975 9.47481H7.51325C7.36294 8.18418 7.5894 6.87762 8.1653 5.71287C8.7412 4.54811 9.64191 3.57493 10.7587 2.91081C10.3539 2.29234 9.79538 1.78962 9.13787 1.45186C8.48037 1.1141 7.74642 0.952888 7.00789 0.98401C6.26936 1.01513 5.55158 1.23752 4.92482 1.6294C4.29807 2.02128 3.78383 2.56921 3.43246 3.21955C3.0811 3.86988 2.90465 4.60032 2.9204 5.33933C2.93615 6.07835 3.14356 6.80061 3.52232 7.43538C3.90107 8.07015 4.43819 8.59568 5.08107 8.9605C5.72395 9.32532 6.45056 9.51692 7.18975 9.51655V9.47481Z" fill="#191617"/>
<path d="M21.1002 8.69212C21.1128 8.93197 21.1128 9.17232 21.1002 9.41217C21.3004 9.44392 21.5027 9.46136 21.7054 9.46435H21.9037C22.6396 9.42511 23.3529 9.19598 23.974 8.79927C24.5951 8.40256 25.1029 7.85179 25.4479 7.20057C25.793 6.54936 25.9635 5.8199 25.943 5.08321C25.9224 4.34651 25.7114 3.6277 25.3306 2.99674C24.9498 2.36577 24.4121 1.84417 23.7698 1.48271C23.1276 1.12125 22.4027 0.932242 21.6657 0.934096C20.9287 0.935949 20.2048 1.1286 19.5644 1.49329C18.924 1.85798 18.3889 2.38228 18.0112 3.01515C18.9557 3.63182 19.7324 4.47332 20.2715 5.46414C20.8106 6.45497 21.0954 7.56413 21.1002 8.69212Z" fill="#191617"/>
<path d="M14.2546 13.3673C16.8308 13.3673 18.9193 11.2788 18.9193 8.70256C18.9193 6.12631 16.8308 4.03784 14.2546 4.03784C11.6783 4.03784 9.58984 6.12631 9.58984 8.70256C9.58984 11.2788 11.6783 13.3673 14.2546 13.3673Z" fill="#191617"/>
<path d="M14.5048 15.851C13.142 15.7959 11.7821 16.0172 10.507 16.5014C9.23187 16.9856 8.0679 17.7228 7.08511 18.6686L6.82422 18.9608V25.5665C6.82829 25.7817 6.87471 25.9939 6.96084 26.1912C7.04696 26.3884 7.17109 26.5667 7.32614 26.716C7.4812 26.8652 7.66413 26.9824 7.8645 27.0609C8.06487 27.1395 8.27875 27.1778 8.49392 27.1736H20.4844C20.6996 27.1778 20.9135 27.1395 21.1138 27.0609C21.3142 26.9824 21.4971 26.8652 21.6522 26.716C21.8073 26.5667 21.9314 26.3884 22.0175 26.1912C22.1036 25.9939 22.1501 25.7817 22.1541 25.5665V18.9816L21.9037 18.6686C20.9272 17.7199 19.7673 16.9806 18.495 16.4961C17.2228 16.0116 15.865 15.7921 14.5048 15.851Z" fill="#191617"/>
</g>
<defs>
<clipPath id="clip0_402_356">
<rect width="29" height="26.3636" fill="white" transform="translate(0 0.818176)"/>
</clipPath>
</defs>
</svg>
