<svg width="27" height="27" viewBox="0 0 27 27" fill="none" xmlns="http://www.w3.org/2000/svg">
<g clip-path="url(#clip0_402_371)">
<path d="M23.2048 0.783386L16.7751 5.60566V8.72307L12.6043 12.8938C12.9454 13.1073 13.2709 13.3489 13.5622 13.6408C13.8536 13.9321 14.0957 14.2576 14.3092 14.5987L18.4799 10.4279H21.5973L26.4196 3.99824L23.2048 0.783386ZM7.1305 14.7775L1.24933 20.6587C0.518453 21.3896 0.518453 22.5751 1.24933 23.3064L3.89656 25.9537C4.62794 26.685 5.81291 26.685 6.54429 25.9537L12.4255 20.0725C13.8877 18.6102 13.8877 16.2398 12.4255 14.7775C10.9632 13.3153 8.59276 13.3153 7.1305 14.7775Z" fill="#191617"/>
</g>
<defs>
<clipPath id="clip0_402_371">
<rect width="25.7188" height="25.7188" fill="white" transform="translate(0.700195 0.783386)"/>
</clipPath>
</defs>
</svg>
