<svg width="25" height="24" viewBox="0 0 25 24" fill="none" xmlns="http://www.w3.org/2000/svg">
<g clip-path="url(#clip0_402_387)">
<path d="M24.6206 0.147321C24.9188 0.361607 25.0408 0.647321 24.9866 1.00446L21.5172 21.5759C21.472 21.8348 21.3274 22.0357 21.0835 22.1786C20.957 22.25 20.817 22.2857 20.6634 22.2857C20.564 22.2857 20.4556 22.2634 20.3381 22.2188L14.1989 19.7411L10.9193 23.692C10.7566 23.8973 10.5353 24 10.2552 24C10.1378 24 10.0384 23.9821 9.95706 23.9464C9.7854 23.8839 9.64762 23.779 9.54372 23.6317C9.43982 23.4844 9.38787 23.3214 9.38787 23.1429V18.4688L21.097 4.28571L6.60965 16.6741L1.25649 14.5045C0.922198 14.3795 0.741501 14.1339 0.714396 13.7679C0.696327 13.4107 0.840885 13.1473 1.14807 12.9777L23.6991 0.120536C23.8346 0.0401786 23.9792 0 24.1328 0C24.3135 0 24.4761 0.0491071 24.6206 0.147321Z" fill="#191617"/>
</g>
<defs>
<clipPath id="clip0_402_387">
<rect width="25" height="24" fill="white"/>
</clipPath>
</defs>
</svg>
