<svg width="118" height="27" viewBox="0 0 118 27" fill="none" xmlns="http://www.w3.org/2000/svg">
<path d="M23.1111 0.291016H2.88889C1.3 0.291016 0 1.59102 0 3.1799V23.4021C0 24.9925 1.3 26.291 2.88889 26.291H13V16.1799H10.1111V12.6049H13V9.64379C13 6.51802 14.7507 4.32246 18.4398 4.32246L21.0441 4.32535V8.08813H19.3151C17.8793 8.08813 17.3333 9.16568 17.3333 10.1652V12.6063H21.0427L20.2222 16.1799H17.3333V26.291H23.1111C24.7 26.291 26 24.9925 26 23.4021V3.1799C26 1.59102 24.7 0.291016 23.1111 0.291016Z" fill="black"/>
<path d="M68.1509 22.4473H64.3008V16.4143C64.3008 14.9756 64.2715 13.1242 62.2944 13.1242C60.287 13.1242 59.9804 14.6896 59.9804 16.3081V22.4473H56.1302V10.041H59.8288V11.7321H59.8786C60.3953 10.7571 61.652 9.72793 63.5294 9.72793C67.4305 9.72793 68.152 12.2954 68.152 15.6375L68.1509 22.4473ZM51.7818 8.34343C51.488 8.34358 51.1972 8.28579 50.9258 8.17339C50.6545 8.06099 50.4079 7.89618 50.2003 7.68839C49.9928 7.4806 49.8282 7.23392 49.716 6.96245C49.6039 6.69098 49.5464 6.40006 49.5468 6.10635C49.547 5.66411 49.6784 5.23187 49.9243 4.86428C50.1701 4.49669 50.5195 4.21026 50.9282 4.04122C51.3368 3.87218 51.7864 3.82812 52.2201 3.91461C52.6538 4.0011 53.0521 4.21425 53.3647 4.52711C53.6772 4.83997 53.89 5.23849 53.9761 5.67227C54.0621 6.10606 54.0176 6.55562 53.8482 6.96411C53.6788 7.37261 53.392 7.72168 53.0242 7.9672C52.6564 8.21272 52.224 8.34365 51.7818 8.34343ZM53.7123 22.4473H49.8513V10.041H53.7123V22.4473ZM70.0771 0.291016H47.9186C46.858 0.291016 46 1.12952 46 2.1641V24.4179C46 25.4536 46.858 26.291 47.9186 26.291H70.0738C71.1333 26.291 72 25.4536 72 24.4179V2.1641C72 1.12952 71.1333 0.291016 70.0738 0.291016H70.0771Z" fill="black"/>
<path d="M105 10.067C104.362 10.067 103.739 10.2561 103.209 10.6104C102.679 10.9646 102.265 11.4681 102.021 12.0572C101.777 12.6464 101.714 13.2946 101.838 13.92C101.962 14.5454 102.269 15.1198 102.72 15.5707C103.171 16.0216 103.746 16.3287 104.371 16.4531C104.996 16.5775 105.645 16.5136 106.234 16.2696C106.823 16.0256 107.326 15.6124 107.681 15.0822C108.035 14.552 108.224 13.9287 108.224 13.291C108.224 12.8676 108.141 12.4484 107.979 12.0572C107.817 11.6661 107.579 11.3107 107.28 11.0113C106.98 10.7119 106.625 10.4744 106.234 10.3124C105.843 10.1504 105.423 10.067 105 10.067ZM117.909 6.88202C117.902 5.8781 117.717 4.88336 117.363 3.94402C117.102 3.25665 116.698 2.63244 116.178 2.11256C115.659 1.59268 115.034 1.18895 114.347 0.928016C113.408 0.573719 112.413 0.388855 111.409 0.382016C109.732 0.291016 109.238 0.291016 105 0.291016C100.762 0.291016 100.268 0.291016 98.591 0.382016C97.5871 0.388855 96.5923 0.573719 95.653 0.928016C94.9656 1.18895 94.3414 1.59268 93.8215 2.11256C93.3017 2.63244 92.8979 3.25665 92.637 3.94402C92.2827 4.88336 92.0978 5.8781 92.091 6.88202C92 8.55902 92 9.05302 92 13.291C92 17.529 92 18.023 92.091 19.7C92.105 20.7075 92.2896 21.7053 92.637 22.651C92.8968 23.3352 93.3002 23.9558 93.82 24.471C94.3377 24.994 94.9632 25.3977 95.653 25.654C96.5923 26.0083 97.5871 26.1932 98.591 26.2C100.268 26.291 100.762 26.291 105 26.291C109.238 26.291 109.732 26.291 111.409 26.2C112.413 26.1932 113.408 26.0083 114.347 25.654C115.037 25.3977 115.662 24.994 116.18 24.471C116.7 23.9558 117.103 23.3352 117.363 22.651C117.717 21.7071 117.902 20.7081 117.909 19.7C118 18.023 118 17.529 118 13.291C118 9.05302 118 8.55902 117.909 6.88202ZM114.607 17.282C114.565 18.0842 114.394 18.8745 114.1 19.622C113.848 20.2456 113.472 20.8121 112.997 21.2878C112.521 21.7635 111.955 22.1386 111.331 22.391C110.576 22.6687 109.782 22.8223 108.978 22.846H101.022C100.218 22.8223 99.4236 22.6687 98.669 22.391C98.0243 22.1514 97.4422 21.7693 96.966 21.273C96.495 20.8066 96.1312 20.2432 95.9 19.622C95.6212 18.8682 95.4718 18.0726 95.458 17.269V9.31301C95.4718 8.50939 95.6212 7.71387 95.9 6.96002C96.1396 6.31535 96.5218 5.73318 97.018 5.25702C97.4864 4.78853 98.0492 4.42514 98.669 4.19102C99.4236 3.91334 100.218 3.75969 101.022 3.73602H108.978C109.782 3.75969 110.576 3.91334 111.331 4.19102C111.976 4.43058 112.558 4.81277 113.034 5.30902C113.505 5.77539 113.869 6.33879 114.1 6.96002C114.378 7.71465 114.531 8.50926 114.555 9.31301V13.291C114.555 15.969 114.646 16.242 114.607 17.269V17.282ZM112.527 7.61002C112.372 7.19009 112.128 6.80875 111.812 6.49229C111.495 6.17584 111.114 5.9318 110.694 5.77702C110.117 5.57715 109.51 5.48034 108.9 5.49102H101.1C100.487 5.49701 99.8794 5.61144 99.306 5.82902C98.8925 5.97677 98.5152 6.21084 98.1992 6.51568C97.8831 6.82051 97.6356 7.18912 97.473 7.59702C97.2842 8.17599 97.192 8.78209 97.2 9.39102V17.191C97.2129 17.8036 97.3271 18.4098 97.538 18.985C97.6928 19.4049 97.9368 19.7863 98.2533 20.1027C98.5697 20.4192 98.9511 20.6632 99.371 20.818C99.9257 21.022 100.509 21.1361 101.1 21.156H108.9C109.513 21.15 110.121 21.0356 110.694 20.818C111.114 20.6632 111.495 20.4192 111.812 20.1027C112.128 19.7863 112.372 19.4049 112.527 18.985C112.745 18.4116 112.859 17.8043 112.865 17.191V9.39102C112.865 8.77715 112.751 8.16865 112.527 7.59702V7.61002ZM105 18.257C104.348 18.257 103.703 18.1285 103.102 17.8787C102.5 17.629 101.953 17.263 101.493 16.8017C101.033 16.3404 100.668 15.7929 100.42 15.1904C100.172 14.588 100.045 13.9425 100.047 13.291C100.047 12.3083 100.339 11.3476 100.885 10.5307C101.431 9.71377 102.207 9.07728 103.116 8.7018C104.024 8.32632 105.023 8.22874 105.987 8.42141C106.95 8.61408 107.835 9.08834 108.529 9.78414C109.223 10.48 109.695 11.366 109.885 12.3302C110.075 13.2944 109.975 14.2933 109.597 15.2004C109.219 16.1076 108.581 16.8823 107.762 17.4264C106.944 17.9705 105.983 18.2596 105 18.257ZM110.2 9.30002C109.913 9.2696 109.647 9.1339 109.453 8.91908C109.26 8.70425 109.153 8.4255 109.153 8.13652C109.153 7.84754 109.26 7.56878 109.453 7.35395C109.647 7.13913 109.913 7.00343 110.2 6.97302C110.487 7.00343 110.753 7.13913 110.947 7.35395C111.14 7.56878 111.247 7.84754 111.247 8.13652C111.247 8.4255 111.14 8.70425 110.947 8.91908C110.753 9.1339 110.487 9.2696 110.2 9.30002Z" fill="black"/>
</svg>
