<svg width="20" height="29" viewBox="0 0 20 29" fill="none" xmlns="http://www.w3.org/2000/svg">
<path d="M9.90187 13.4382C8.96396 13.4382 8.06447 13.0657 7.40127 12.4025C6.73807 11.7393 6.36549 10.8398 6.36549 9.90187C6.36549 8.96396 6.73807 8.06447 7.40127 7.40127C8.06447 6.73807 8.96396 6.36549 9.90187 6.36549C10.8398 6.36549 11.7393 6.73807 12.4025 7.40127C13.0657 8.06447 13.4382 8.96396 13.4382 9.90187C13.4382 10.3663 13.3468 10.8261 13.1691 11.2552C12.9913 11.6842 12.7308 12.0741 12.4025 12.4025C12.0741 12.7308 11.6842 12.9913 11.2552 13.1691C10.8261 13.3468 10.3663 13.4382 9.90187 13.4382ZM9.90187 0C7.27573 0 4.75715 1.04323 2.90019 2.90019C1.04323 4.75715 0 7.27573 0 9.90187C0 17.3283 9.90187 28.291 9.90187 28.291C9.90187 28.291 19.8037 17.3283 19.8037 9.90187C19.8037 7.27573 18.7605 4.75715 16.9035 2.90019C15.0466 1.04323 12.528 0 9.90187 0Z" fill="#191617"/>
</svg>
