<svg width="149" height="56" viewBox="0 0 149 56" fill="none" xmlns="http://www.w3.org/2000/svg">
<g clip-path="url(#clip0_402_324)">
<path d="M149 8.73583L2.63027 15.5183C1.20329 15.5842 0 14.7393 0 13.6735V1.86421C0 0.837151 1.11844 0 2.49915 0H146.678C147.959 0 149 0.77514 149 1.73244V8.73583Z" fill="#231F20"/>
<path d="M144.256 12.2976L2.72669 15.5803C1.23415 15.6152 0 14.7199 0 13.6076V11.0186L149 6.39102V8.65056C149 10.6233 146.902 12.2433 144.256 12.3015V12.2976Z" fill="#EFBF07"/>
<path d="M143.262 11.1038C144.887 11.1038 146.205 9.77981 146.205 8.14661C146.205 6.51342 144.887 5.18945 143.262 5.18945C141.637 5.18945 140.319 6.51342 140.319 8.14661C140.319 9.77981 141.637 11.1038 143.262 11.1038Z" fill="#231F20" stroke="#EFBF07" stroke-width="1.125" stroke-miterlimit="10"/>
<path d="M143.261 9.96057C144.258 9.96057 145.066 9.14849 145.066 8.14674C145.066 7.14499 144.258 6.33292 143.261 6.33292C142.265 6.33292 141.457 7.14499 141.457 8.14674C141.457 9.14849 142.265 9.96057 143.261 9.96057Z" fill="#EFBF07"/>
<path d="M144.261 38.5903L145.063 9.90619C145.125 8.00323 144.797 6.80176 143.347 6.80176C141.684 6.80176 141.503 7.7048 141.596 9.81318L142.976 38.5748L144.265 38.5903H144.261Z" fill="url(#paint0_linear_402_324)"/>
<path d="M148.935 41.9932L147.851 39.2725C147.685 38.8578 147.288 38.5865 146.844 38.5865H140.346C139.902 38.5865 139.505 38.8578 139.339 39.2725C139.204 39.8577 137.897 42.2064 138.255 42.7994L139.339 45.5201C139.567 46.1674 140.296 46.2526 140.886 46.2061C140.886 47.1053 141.75 47.3921 142.509 47.2952C142.328 50.8492 145.082 50.1089 145.217 52.1902C145.174 54.3025 141.985 54.3335 141.969 52.1902C141.966 50.7678 139.81 50.7678 139.802 52.1902C139.802 54.2908 141.503 56 143.593 56C147.512 56.031 148.838 50.4461 145.255 48.768C144.75 48.5509 144.627 47.8417 144.677 47.2952C145.437 47.3921 146.3 47.1092 146.3 46.2061C146.894 46.2526 147.619 46.1712 147.847 45.5201C147.982 44.9388 149.289 42.5823 148.931 41.9932H148.935ZM141.071 43.9505H139.929L141.372 39.598H142.513L141.071 43.9505ZM143.447 43.9505H142.305L143.747 39.598H144.889L143.447 43.9505ZM145.822 43.9505H144.681L146.123 39.598H147.265L145.822 43.9505Z" fill="#EFBF07"/>
<path d="M9.60707 55.8605C8.27651 55.8605 7.04236 55.6473 5.91235 55.2171C4.78233 54.7908 3.80273 54.1823 2.97739 53.3917C2.15206 52.601 1.50799 51.6708 1.04133 50.5973C0.574664 49.5276 0.343262 48.3455 0.343262 47.0549C0.343262 45.7643 0.574664 44.5861 1.04133 43.5125C1.50799 42.4389 2.15206 41.5088 2.97739 40.7181C3.80273 39.9275 4.78233 39.319 5.91235 38.8927C7.04622 38.4663 8.27651 38.2493 9.60707 38.2493C11.1613 38.2493 12.5536 38.5245 13.7839 39.0709C15.0103 39.6213 16.0362 40.4081 16.85 41.4429L13.8186 44.2024C13.2709 43.559 12.6732 43.0668 12.0252 42.7296C11.3734 42.3924 10.6484 42.2219 9.84619 42.2219C9.15584 42.2219 8.52334 42.3343 7.94483 42.5591C7.36632 42.7839 6.87267 43.1094 6.46386 43.5358C6.05504 43.9621 5.73494 44.4775 5.50354 45.0744C5.27213 45.6713 5.15257 46.334 5.15257 47.0549C5.15257 47.7758 5.26828 48.4424 5.50354 49.0392C5.73494 49.6361 6.05504 50.1477 6.46386 50.574C6.87267 51.0004 7.36632 51.3298 7.94483 51.5546C8.52334 51.7794 9.15584 51.8918 9.84619 51.8918C10.6484 51.8918 11.3734 51.7212 12.0252 51.384C12.6732 51.0469 13.2709 50.5546 13.8186 49.9074L16.85 52.6669C16.0323 53.6823 15.0103 54.4691 13.7839 55.0233C12.5575 55.5814 11.1613 55.8566 9.60707 55.8566V55.8605Z" fill="#231F20"/>
<path d="M27.2283 55.8605C25.8823 55.8605 24.6366 55.6434 23.495 55.2055C22.3534 54.7675 21.3661 54.1552 20.5215 53.3568C19.6807 52.5584 19.0251 51.6282 18.5584 50.5624C18.0918 49.4966 17.8604 48.33 17.8604 47.0549C17.8604 45.7798 18.0918 44.6132 18.5584 43.5474C19.0251 42.4854 19.6807 41.5514 20.5215 40.753C21.3622 39.9546 22.3534 39.3384 23.495 38.9043C24.6366 38.4702 25.8784 38.2493 27.2283 38.2493C28.5781 38.2493 29.8393 38.4663 30.9732 38.9043C32.1032 39.3384 33.0866 39.9585 33.9197 40.753C34.7527 41.5514 35.4084 42.4816 35.8789 43.5474C36.3533 44.6132 36.5885 45.7798 36.5885 47.0549C36.5885 48.33 36.3533 49.5005 35.8789 50.574C35.4084 51.6476 34.7527 52.5778 33.9197 53.3684C33.0866 54.159 32.1032 54.7714 30.9732 55.2055C29.8393 55.6396 28.5936 55.8605 27.2283 55.8605ZM27.2283 51.8956C27.8685 51.8956 28.4702 51.7832 29.0217 51.5585C29.577 51.3337 30.0591 51.0042 30.4679 50.5779C30.8767 50.1516 31.1968 49.64 31.4282 49.0431C31.6596 48.4463 31.7753 47.7835 31.7753 47.0588C31.7753 46.334 31.6596 45.6519 31.4282 45.0628C31.1968 44.4737 30.8729 43.966 30.4679 43.5396C30.0591 43.1133 29.577 42.7839 29.0217 42.563C28.4702 42.3382 27.8685 42.2258 27.2283 42.2258C26.5881 42.2258 25.9864 42.3382 25.4349 42.563C24.8834 42.7877 24.4013 43.1133 23.9925 43.5396C23.5837 43.966 23.2636 44.4737 23.0322 45.0628C22.8008 45.6519 22.6812 46.3185 22.6812 47.0588C22.6812 47.799 22.7969 48.4463 23.0322 49.0431C23.2636 49.64 23.5837 50.1516 23.9925 50.5779C24.4013 51.0042 24.8834 51.3337 25.4349 51.5585C25.9903 51.7832 26.5881 51.8956 27.2283 51.8956Z" fill="#231F20"/>
<path d="M37.6108 55.5233V38.5904H41.5331L50.8239 49.8648H48.9727V38.5904H53.6432V55.5233H49.7209L40.4301 44.2528H42.2813V55.5233H37.6108Z" fill="#231F20"/>
<path d="M59.8329 55.5233V42.3886H54.6572V38.5904H69.7524V42.3886H64.5998V55.5233H59.8329Z" fill="#231F20"/>
<path d="M70.7666 55.5233V38.5904H78.4684C80.0111 38.5904 81.3378 38.8423 82.4524 39.3422C83.567 39.8422 84.4309 40.5631 85.0403 41.5088C85.6496 42.4544 85.9543 43.5706 85.9543 44.8574C85.9543 46.1441 85.6496 47.2332 85.0403 48.1595C84.4309 49.0858 83.567 49.7989 82.4524 50.2911C81.3378 50.7833 80.0111 51.0275 78.4684 51.0275H73.4162L75.5335 49.0199V55.5272H70.7666V55.5233ZM75.5335 49.5237L73.4162 47.3223H78.183C79.1781 47.3223 79.9224 47.1053 80.4122 46.6712C80.8982 46.2332 81.145 45.6286 81.145 44.8574C81.145 44.0861 80.902 43.4544 80.4122 43.0203C79.9224 42.5862 79.1819 42.3653 78.183 42.3653H73.4162L75.5335 40.1639V49.5276V49.5237ZM81.1913 55.5233L77.0029 49.3571H82.0822L86.2937 55.5233H81.1913Z" fill="#231F20"/>
<path d="M96.6717 55.8605C95.3257 55.8605 94.0799 55.6434 92.9384 55.2055C91.7968 54.7675 90.8095 54.1551 89.9648 53.3567C89.1241 52.5584 88.4684 51.6282 88.0018 50.5624C87.5351 49.4966 87.3037 48.33 87.3037 47.0549C87.3037 45.7798 87.5351 44.6132 88.0018 43.5473C88.4684 42.4854 89.1241 41.5514 89.9648 40.753C90.8056 39.9546 91.7968 39.3383 92.9384 38.9043C94.0799 38.4702 95.3218 38.2493 96.6717 38.2493C98.0215 38.2493 99.2826 38.4663 100.417 38.9043C101.547 39.3383 102.53 39.9585 103.363 40.753C104.196 41.5514 104.852 42.4815 105.322 43.5473C105.797 44.6132 106.032 45.7798 106.032 47.0549C106.032 48.33 105.797 49.5004 105.322 50.574C104.852 51.6476 104.196 52.5777 103.363 53.3684C102.53 54.159 101.547 54.7714 100.417 55.2055C99.2826 55.6395 98.0369 55.8605 96.6717 55.8605ZM96.6717 51.8956C97.3119 51.8956 97.9135 51.7832 98.465 51.5584C99.0204 51.3336 99.5025 51.0042 99.9113 50.5779C100.32 50.1515 100.64 49.6399 100.872 49.0431C101.103 48.4462 101.219 47.7835 101.219 47.0587C101.219 46.334 101.103 45.6519 100.872 45.0627C100.64 44.4736 100.316 43.9659 99.9113 43.5396C99.5025 43.1133 99.0204 42.7838 98.465 42.5629C97.9135 42.3381 97.3119 42.2257 96.6717 42.2257C96.0314 42.2257 95.4298 42.3381 94.8783 42.5629C94.3268 42.7877 93.8447 43.1133 93.4359 43.5396C93.0271 43.9659 92.707 44.4736 92.4756 45.0627C92.2442 45.6519 92.1246 46.3185 92.1246 47.0587C92.1246 47.799 92.2403 48.4462 92.4756 49.0431C92.707 49.6399 93.0271 50.1515 93.4359 50.5779C93.8447 51.0042 94.3268 51.3336 94.8783 51.5584C95.4336 51.7832 96.0314 51.8956 96.6717 51.8956Z" fill="#231F20"/>
<path d="M107.054 55.5233V38.5903H111.821V51.7251H119.862V55.5233H107.058H107.054Z" fill="#231F20"/>
<path d="M127.976 55.8605C126.595 55.8605 125.269 55.6861 123.992 55.3411C122.716 54.9962 121.678 54.5466 120.876 54.0001L122.442 50.4694C123.198 50.9538 124.065 51.353 125.053 51.667C126.04 51.9809 127.024 52.1398 127.999 52.1398C128.659 52.1398 129.187 52.0778 129.588 51.9577C129.989 51.8375 130.282 51.6747 130.468 51.4732C130.653 51.2717 130.745 51.0352 130.745 50.7601C130.745 50.3725 130.568 50.0663 130.217 49.8415C129.866 49.6167 129.407 49.4307 128.844 49.2873C128.285 49.14 127.66 48.9966 126.977 48.8532C126.295 48.7059 125.612 48.5238 124.933 48.2951C124.251 48.0703 123.63 47.7758 123.067 47.4115C122.504 47.051 122.048 46.5743 121.694 45.9852C121.343 45.3961 121.165 44.652 121.165 43.7489C121.165 42.7335 121.443 41.8149 121.994 40.9894C122.55 40.1678 123.379 39.505 124.486 39.0051C125.593 38.5051 126.973 38.2532 128.628 38.2532C129.735 38.2532 130.822 38.3811 131.891 38.6291C132.959 38.8772 133.908 39.2454 134.745 39.7298L133.275 43.2838C132.473 42.8498 131.679 42.5203 130.892 42.3072C130.105 42.0901 129.341 41.9816 128.605 41.9816C127.945 41.9816 127.417 42.0514 127.016 42.187C126.615 42.3265 126.325 42.5048 126.148 42.7335C125.971 42.9583 125.882 43.2141 125.882 43.5086C125.882 43.8768 126.056 44.1752 126.399 44.3923C126.742 44.6093 127.201 44.7876 127.772 44.9271C128.339 45.0628 128.967 45.2062 129.65 45.3496C130.333 45.493 131.015 45.6751 131.698 45.8922C132.381 46.1092 133.001 46.3999 133.565 46.7642C134.124 47.1247 134.579 47.6014 134.922 48.1905C135.265 48.7796 135.439 49.516 135.439 50.4035C135.439 51.3879 135.161 52.2948 134.61 53.1242C134.058 53.9536 133.229 54.6203 132.13 55.1202C131.031 55.6202 129.646 55.8721 127.976 55.8721V55.8605Z" fill="#231F20"/>
<path d="M1.98633 34.2496V18.8515H5.49979L13.8187 29.1027H12.1603V18.8515H16.341V34.2496H12.8275L4.50861 23.9984H6.167V34.2496H1.98633Z" fill="#EFBF07"/>
<path d="M19.2031 34.2497V18.8516H23.4725V34.2497H19.2031Z" fill="#EFBF07"/>
<path d="M24.4595 34.2496L31.12 18.8514H35.3238L42.0075 34.2496H37.5684L32.3503 20.9869H34.0318L28.8137 34.2496H24.4595ZM28.1041 31.2575L29.2032 28.0446H36.5772L37.6764 31.2575H28.1041Z" fill="#EFBF07"/>
<path d="M42.9829 34.2496V18.8514H46.4964L54.8153 29.1026H53.1569V18.8514H57.3376V34.2496H53.8241L45.5052 23.9983H47.1636V34.2496H42.9829Z" fill="#EFBF07"/>
<path d="M66.4551 34.2496V18.8514H73.59C75.2561 18.8514 76.7216 19.1653 77.9866 19.7971C79.2516 20.4288 80.2389 21.3164 80.9524 22.4597C81.6621 23.603 82.0207 24.9673 82.0207 26.5524C82.0207 28.1376 81.6659 29.4825 80.9524 30.6335C80.2428 31.7846 79.2516 32.676 77.9866 33.3078C76.7216 33.9395 75.2561 34.2534 73.59 34.2534H66.4551V34.2496ZM70.7245 30.7731H73.4203C74.2842 30.7731 75.0324 30.6064 75.6726 30.277C76.3128 29.9475 76.8103 29.4631 77.169 28.8236C77.5277 28.1841 77.709 27.4283 77.709 26.5486C77.709 25.6688 77.5277 24.8898 77.169 24.2619C76.8103 23.6301 76.309 23.1496 75.6726 22.8201C75.0324 22.4907 74.2842 22.324 73.4203 22.324H70.7245V30.7692V30.7731Z" fill="#EFBF07"/>
<path d="M84.0186 34.2496V18.8514H90.9182C92.2989 18.8514 93.4868 19.0801 94.4857 19.5335C95.4845 19.987 96.2559 20.6459 96.8035 21.5024C97.3512 22.3589 97.6212 23.3744 97.6212 24.5487C97.6212 25.723 97.3473 26.7075 96.8035 27.5524C96.2597 28.3973 95.4845 29.0406 94.4857 29.4863C93.4868 29.932 92.2989 30.1568 90.9182 30.1568H86.3904L88.2879 28.3314V34.2496H84.0186ZM88.2879 28.7926L86.3904 26.7927H90.6598C91.5507 26.7927 92.2141 26.5951 92.6537 26.1997C93.0934 25.8044 93.3132 25.2541 93.3132 24.5487C93.3132 23.8433 93.0934 23.2736 92.6537 22.8783C92.2141 22.4829 91.5507 22.2853 90.6598 22.2853H86.3904L88.2879 20.2815V28.7926ZM93.3518 34.2496L89.5992 28.6414H94.1463L97.9181 34.2496H93.3479H93.3518Z" fill="#EFBF07"/>
<path d="M99.769 34.2496V18.8514H104.038V34.2496H99.769Z" fill="#EFBF07"/>
<path d="M111.471 34.2497L105.026 18.8516H109.639L115.069 32.1801H112.354L117.915 18.8516H122.142L115.675 34.2497H111.471Z" fill="#EFBF07"/>
<path d="M127.356 30.8816H135.247V34.2457H123.133V18.8475H134.97V22.2116H127.36V30.8777L127.356 30.8816ZM127.056 24.8122H134.063V28.0678H127.056V24.8122Z" fill="#EFBF07"/>
</g>
<defs>
<linearGradient id="paint0_linear_402_324" x1="143.324" y1="38.5903" x2="143.324" y2="6.80176" gradientUnits="userSpaceOnUse">
<stop offset="0.02" stop-color="#808285"/>
<stop offset="0.1" stop-color="#76777A"/>
<stop offset="0.51" stop-color="#494749"/>
<stop offset="0.82" stop-color="#2D2A2B"/>
<stop offset="1" stop-color="#231F20"/>
</linearGradient>
<clipPath id="clip0_402_324">
<rect width="149" height="56" fill="white"/>
</clipPath>
</defs>
</svg>
