<svg width="28" height="28" viewBox="0 0 28 28" fill="none" xmlns="http://www.w3.org/2000/svg">
<g clip-path="url(#clip0_402_312)">
<path d="M25.9452 18.8955C24.1637 18.8955 22.4401 18.6059 20.8324 18.0844C20.5805 17.9991 20.3097 17.9864 20.051 18.0479C19.7922 18.1094 19.5561 18.2425 19.3695 18.4321L17.0956 21.2854C12.9966 19.3301 9.15838 15.6367 7.11615 11.3929L9.94051 8.98856C10.3316 8.58301 10.4474 8.01814 10.2881 7.5112C9.75222 5.90349 9.47703 4.1799 9.47703 2.39838C9.47703 1.61625 8.82525 0.964478 8.04312 0.964478H3.03169C2.24956 0.964478 1.30811 1.31209 1.30811 2.39838C1.30811 15.8539 12.5042 27.0355 25.9452 27.0355C26.9736 27.0355 27.3791 26.123 27.3791 25.3264V20.3295C27.3791 19.5473 26.7274 18.8955 25.9452 18.8955Z" fill="#191617"/>
</g>
<defs>
<clipPath id="clip0_402_312">
<rect width="27.3125" height="27.3125" fill="white" transform="translate(0.6875 0.34375)"/>
</clipPath>
</defs>
</svg>
