<svg width="26" height="26" viewBox="0 0 26 26" fill="none" xmlns="http://www.w3.org/2000/svg">
<path fill-rule="evenodd" clip-rule="evenodd" d="M8.47669 11.4713L14.8342 17.8288C14.0451 19.8454 14.4835 22.2127 16.1493 23.8785C17.9029 25.6321 20.5332 25.9828 22.6375 25.0184L18.8674 21.2482L21.4977 18.6179L25.3555 22.388C26.4076 20.2838 25.9693 17.6534 24.2157 15.8999C22.5595 14.2437 20.21 13.8007 18.2011 14.5711L11.8436 8.21359C12.6327 6.197 12.1943 3.8297 10.5285 2.16382C8.77491 0.410264 6.14458 0.0595528 4.04031 1.02401L7.81045 4.79415L5.18012 7.42449L1.3223 3.65434C0.270163 5.75861 0.708552 8.38894 2.46211 10.1425C4.11831 11.7987 6.4678 12.2416 8.47669 11.4713Z" fill="#191617"/>
</svg>
