<svg width="33" height="28" viewBox="0 0 33 28" fill="none" xmlns="http://www.w3.org/2000/svg">
<g clip-path="url(#clip0_402_696)">
<path d="M13.896 1.94232C13.0965 1.94232 12.3298 2.25991 11.7645 2.82523C11.1992 3.39054 10.8816 4.15727 10.8816 4.95674V5.96155H3.84792C3.04844 5.96155 2.28171 6.27914 1.7164 6.84446C1.15109 7.40977 0.833496 8.1765 0.833496 8.97598V11.7573H16.9104H32.9873V8.97598C32.9873 8.1765 32.6698 7.40977 32.1044 6.84446C31.5391 6.27914 30.7724 5.96155 29.9729 5.96155H22.9393V4.95674C22.9393 4.15727 22.6217 3.39054 22.0564 2.82523C21.491 2.25991 20.7243 1.94232 19.9248 1.94232H13.896ZM13.896 3.95194H19.9248C20.1913 3.95194 20.4469 4.0578 20.6353 4.24624C20.8238 4.43468 20.9296 4.69025 20.9296 4.95674V5.96155H12.8912V4.95674C12.8912 4.69025 12.9971 4.43468 13.1855 4.24624C13.3739 4.0578 13.6295 3.95194 13.896 3.95194Z" fill="#191617"/>
<path d="M0.833496 24.0481C0.833496 24.8476 1.15109 25.6143 1.7164 26.1796C2.28171 26.7449 3.04844 27.0625 3.84792 27.0625H29.9729C30.7724 27.0625 31.5391 26.7449 32.1044 26.1796C32.6698 25.6143 32.9873 24.8476 32.9873 24.0481V12.6938H17.3312H0.833496V24.0481Z" fill="#191617"/>
</g>
<defs>
<clipPath id="clip0_402_696">
<rect width="32.1538" height="26.125" fill="white" transform="translate(0.833496 0.9375)"/>
</clipPath>
</defs>
</svg>
