<svg width="27" height="27" viewBox="0 0 27 27" fill="none" xmlns="http://www.w3.org/2000/svg">
<g clip-path="url(#clip0_402_692)">
<path d="M23.2045 0.783386L16.7748 5.60566V8.72307L12.604 12.8938C12.9451 13.1073 13.2706 13.3489 13.562 13.6408C13.8533 13.9321 14.0954 14.2576 14.3089 14.5987L18.4797 10.4279H21.5971L26.4194 3.99824L23.2045 0.783386ZM7.13026 14.7775L1.24909 20.6587C0.518209 21.3896 0.518209 22.5751 1.24909 23.3064L3.89632 25.9537C4.62769 26.685 5.81267 26.685 6.54405 25.9537L12.4252 20.0725C13.8875 18.6102 13.8875 16.2398 12.4252 14.7775C10.963 13.3153 8.59251 13.3153 7.13026 14.7775Z" fill="#F7F2F3"/>
</g>
<defs>
<clipPath id="clip0_402_692">
<rect width="25.7188" height="25.7188" fill="white" transform="translate(0.700195 0.783386)"/>
</clipPath>
</defs>
</svg>
