<svg width="118" height="26" viewBox="0 0 118 26" fill="none" xmlns="http://www.w3.org/2000/svg">
<path d="M23.1111 0H2.88889C1.3 0 0 1.3 0 2.88889V23.1111C0 24.7014 1.3 26 2.88889 26H13V15.8889H10.1111V12.3139H13V9.35278C13 6.227 14.7507 4.03144 18.4398 4.03144L21.0441 4.03433V7.79711H19.3151C17.8793 7.79711 17.3333 8.87467 17.3333 9.87422V12.3153H21.0427L20.2222 15.8889H17.3333V26H23.1111C24.7 26 26 24.7014 26 23.1111V2.88889C26 1.3 24.7 0 23.1111 0Z" fill="black"/>
<path d="M68.1509 22.1563H64.3008V16.1233C64.3008 14.6846 64.2715 12.8332 62.2944 12.8332C60.287 12.8332 59.9804 14.3986 59.9804 16.0171V22.1563H56.1302V9.75H59.8288V11.4411H59.8786C60.3953 10.4661 61.652 9.43692 63.5294 9.43692C67.4305 9.43692 68.152 12.0044 68.152 15.3465L68.1509 22.1563ZM51.7818 8.05242C51.488 8.05256 51.1972 7.99478 50.9258 7.88238C50.6545 7.76998 50.4079 7.60517 50.2003 7.39738C49.9928 7.18959 49.8282 6.9429 49.716 6.67143C49.6039 6.39997 49.5464 6.10905 49.5468 5.81533C49.547 5.37309 49.6784 4.94085 49.9243 4.57326C50.1701 4.20567 50.5195 3.91925 50.9282 3.75021C51.3368 3.58117 51.7864 3.53711 52.2201 3.62359C52.6538 3.71008 53.0521 3.92323 53.3647 4.23609C53.6772 4.54895 53.89 4.94747 53.9761 5.38126C54.0621 5.81504 54.0176 6.2646 53.8482 6.6731C53.6788 7.08159 53.392 7.43067 53.0242 7.67618C52.6564 7.9217 52.224 8.05263 51.7818 8.05242ZM53.7123 22.1563H49.8513V9.75H53.7123V22.1563ZM70.0771 0H47.9186C46.858 0 46 0.8385 46 1.87308V24.1269C46 25.1626 46.858 26 47.9186 26H70.0738C71.1333 26 72 25.1626 72 24.1269V1.87308C72 0.8385 71.1333 0 70.0738 0H70.0771Z" fill="black"/>
<path d="M105 9.776C104.362 9.776 103.739 9.96508 103.209 10.3193C102.679 10.6736 102.265 11.1771 102.021 11.7662C101.777 12.3553 101.714 13.0036 101.838 13.629C101.962 14.2544 102.269 14.8288 102.72 15.2797C103.171 15.7306 103.746 16.0377 104.371 16.1621C104.996 16.2864 105.645 16.2226 106.234 15.9786C106.823 15.7346 107.326 15.3213 107.681 14.7912C108.035 14.261 108.224 13.6376 108.224 13C108.224 12.5766 108.141 12.1574 107.979 11.7662C107.817 11.3751 107.579 11.0197 107.28 10.7203C106.98 10.4209 106.625 10.1834 106.234 10.0214C105.843 9.85939 105.423 9.776 105 9.776ZM117.909 6.591C117.902 5.58709 117.717 4.59234 117.363 3.653C117.102 2.96564 116.698 2.34142 116.178 1.82154C115.659 1.30166 115.034 0.897933 114.347 0.637C113.408 0.282703 112.413 0.0978392 111.409 0.0909999C109.732 -8.71718e-08 109.238 0 105 0C100.762 0 100.268 -8.71718e-08 98.591 0.0909999C97.5871 0.0978392 96.5923 0.282703 95.653 0.637C94.9656 0.897933 94.3414 1.30166 93.8215 1.82154C93.3017 2.34142 92.8979 2.96564 92.637 3.653C92.2827 4.59234 92.0978 5.58709 92.091 6.591C92 8.268 92 8.762 92 13C92 17.238 92 17.732 92.091 19.409C92.105 20.4164 92.2896 21.4142 92.637 22.36C92.8968 23.0442 93.3002 23.6648 93.82 24.18C94.3377 24.703 94.9632 25.1067 95.653 25.363C96.5923 25.7173 97.5871 25.9022 98.591 25.909C100.268 26 100.762 26 105 26C109.238 26 109.732 26 111.409 25.909C112.413 25.9022 113.408 25.7173 114.347 25.363C115.037 25.1067 115.662 24.703 116.18 24.18C116.7 23.6648 117.103 23.0442 117.363 22.36C117.717 21.416 117.902 20.4171 117.909 19.409C118 17.732 118 17.238 118 13C118 8.762 118 8.268 117.909 6.591ZM114.607 16.991C114.565 17.7932 114.394 18.5834 114.1 19.331C113.848 19.9546 113.472 20.5211 112.997 20.9968C112.521 21.4724 111.955 21.8476 111.331 22.1C110.576 22.3777 109.782 22.5313 108.978 22.555H101.022C100.218 22.5313 99.4236 22.3777 98.669 22.1C98.0243 21.8604 97.4422 21.4782 96.966 20.982C96.495 20.5156 96.1312 19.9522 95.9 19.331C95.6212 18.5772 95.4718 17.7816 95.458 16.978V9.022C95.4718 8.21837 95.6212 7.42285 95.9 6.669C96.1396 6.02433 96.5218 5.44216 97.018 4.966C97.4864 4.49751 98.0492 4.13412 98.669 3.9C99.4236 3.62233 100.218 3.46867 101.022 3.445H108.978C109.782 3.46867 110.576 3.62233 111.331 3.9C111.976 4.13957 112.558 4.52176 113.034 5.018C113.505 5.48437 113.869 6.04777 114.1 6.669C114.378 7.42363 114.531 8.21825 114.555 9.022V13C114.555 15.678 114.646 15.951 114.607 16.978V16.991ZM112.527 7.319C112.372 6.89908 112.128 6.51774 111.812 6.20128C111.495 5.88482 111.114 5.64078 110.694 5.486C110.117 5.28614 109.51 5.18933 108.9 5.2H101.1C100.487 5.20599 99.8794 5.32042 99.306 5.538C98.8925 5.68575 98.5152 5.91983 98.1992 6.22466C97.8831 6.5295 97.6356 6.89811 97.473 7.306C97.2842 7.88498 97.192 8.49107 97.2 9.1V16.9C97.2129 17.5126 97.3271 18.1187 97.538 18.694C97.6928 19.1139 97.9368 19.4953 98.2533 19.8117C98.5697 20.1282 98.9511 20.3722 99.371 20.527C99.9257 20.731 100.509 20.8451 101.1 20.865H108.9C109.513 20.859 110.121 20.7446 110.694 20.527C111.114 20.3722 111.495 20.1282 111.812 19.8117C112.128 19.4953 112.372 19.1139 112.527 18.694C112.745 18.1206 112.859 17.5133 112.865 16.9V9.1C112.865 8.48614 112.751 7.87764 112.527 7.306V7.319ZM105 17.966C104.348 17.966 103.703 17.8375 103.102 17.5877C102.5 17.338 101.953 16.972 101.493 16.5107C101.033 16.0494 100.668 15.5019 100.42 14.8994C100.172 14.297 100.045 13.6515 100.047 13C100.047 12.0173 100.339 11.0566 100.885 10.2397C101.431 9.42276 102.207 8.78626 103.116 8.41078C104.024 8.0353 105.023 7.93772 105.987 8.13039C106.95 8.32306 107.835 8.79732 108.529 9.49313C109.223 10.1889 109.695 11.075 109.885 12.0392C110.075 13.0033 109.975 14.0022 109.597 14.9094C109.219 15.8166 108.581 16.5913 107.762 17.1354C106.944 17.6795 105.983 17.9686 105 17.966ZM110.2 9.009C109.913 8.97858 109.647 8.84289 109.453 8.62806C109.26 8.41324 109.153 8.13448 109.153 7.8455C109.153 7.55652 109.26 7.27776 109.453 7.06294C109.647 6.84811 109.913 6.71242 110.2 6.682C110.487 6.71242 110.753 6.84811 110.947 7.06294C111.14 7.27776 111.247 7.55652 111.247 7.8455C111.247 8.13448 111.14 8.41324 110.947 8.62806C110.753 8.84289 110.487 8.97858 110.2 9.009Z" fill="black"/>
</svg>
