<svg width="28" height="28" viewBox="0 0 28 28" fill="none" xmlns="http://www.w3.org/2000/svg">
<g clip-path="url(#clip0_402_702)">
<path d="M25.9455 18.8955C24.1639 18.8955 22.4404 18.6059 20.8326 18.0844C20.5808 17.9991 20.31 17.9864 20.0512 18.0479C19.7925 18.1094 19.5563 18.2425 19.3698 18.4321L17.0958 21.2854C12.9969 19.3301 9.15862 15.6367 7.11639 11.3929L9.94075 8.98856C10.3318 8.58301 10.4477 8.01814 10.2884 7.5112C9.75246 5.90349 9.47727 4.1799 9.47727 2.39838C9.47727 1.61625 8.82549 0.964478 8.04336 0.964478H3.03193C2.2498 0.964478 1.30835 1.31209 1.30835 2.39838C1.30835 15.8539 12.5044 27.0355 25.9455 27.0355C26.9738 27.0355 27.3794 26.123 27.3794 25.3264V20.3295C27.3794 19.5473 26.7276 18.8955 25.9455 18.8955Z" fill="#191617"/>
</g>
<defs>
<clipPath id="clip0_402_702">
<rect width="27.3125" height="27.3125" fill="white" transform="translate(0.6875 0.34375)"/>
</clipPath>
</defs>
</svg>
