<svg width="26" height="26" viewBox="0 0 26 26" fill="none" xmlns="http://www.w3.org/2000/svg">
<path fill-rule="evenodd" clip-rule="evenodd" d="M8.47694 11.4713L14.8344 17.8288C14.0453 19.8454 14.4837 22.2127 16.1496 23.8785C17.9031 25.6321 20.5335 25.9828 22.6377 25.0184L18.8676 21.2482L21.4979 18.6179L25.3558 22.388C26.4079 20.2838 25.9695 17.6534 24.2159 15.8999C22.5597 14.2437 20.2102 13.8007 18.2014 14.5711L11.8439 8.21359C12.633 6.197 12.1946 3.8297 10.5287 2.16382C8.77515 0.410264 6.14482 0.0595528 4.04055 1.02401L7.8107 4.79415L5.18036 7.42449L1.32254 3.65434C0.270407 5.75861 0.708796 8.38894 2.46235 10.1425C4.11855 11.7987 6.46805 12.2416 8.47694 11.4713Z" fill="#F7F2F3"/>
</svg>
